<svg width="25" height="25" viewBox="0 0 25 25" fill="none" xmlns="http://www.w3.org/2000/svg">
<g clip-path="url(#clip0)">
<path d="M20.137 8.5446C17.8113 8.55233 15.9318 10.4474 15.9395 12.7773C15.9472 15.1073 17.8392 16.9898 20.1649 16.982C22.4905 16.9743 24.3696 15.0793 24.3619 12.7493C24.3542 10.4194 22.4626 8.53687 20.137 8.5446ZM20.161 15.799C18.4904 15.8046 17.1268 14.4471 17.1213 12.7734C17.1158 11.0996 18.4702 9.73364 20.1409 9.72809C21.8115 9.72254 23.175 11.0795 23.1805 12.7533C23.1861 14.427 21.8316 15.7935 20.161 15.799Z" fill="#CCCCCC"/>
<path d="M20.1365 8.54491C19.936 8.54558 19.739 8.56058 19.546 8.58841C21.593 8.86937 23.5438 10.6233 23.5509 12.7523C23.5579 14.8814 21.6187 16.6482 19.5737 16.9428C19.7668 16.9693 19.964 16.983 20.1645 16.9824C22.4901 16.9746 24.3696 15.0796 24.3619 12.7496C24.3542 10.4197 22.4622 8.53718 20.1365 8.54491Z" fill="#A6A6A6"/>
<path d="M14.9895 8.56218C12.6639 8.56991 10.7848 10.4649 10.7925 12.7949C10.8003 15.1249 12.6918 17.0074 15.0174 16.9996C17.3431 16.9919 19.2225 15.0969 19.2148 12.7669C19.2071 10.4369 17.3151 8.55445 14.9895 8.56218ZM15.0135 15.8166C13.3429 15.8222 11.9794 14.4647 11.9739 12.791C11.9683 11.1172 13.3228 9.75122 14.9934 9.74567C16.664 9.74012 18.028 11.0971 18.0335 12.7708C18.0391 14.4445 16.6841 15.8111 15.0135 15.8166Z" fill="#CCCCCC"/>
<path d="M14.9896 8.56151C14.7891 8.56218 14.592 8.57718 14.3991 8.60501C16.446 8.88597 18.3968 10.6399 18.4038 12.7689C18.4109 14.898 16.4718 16.6648 14.4267 16.9594C14.6198 16.9859 14.817 16.9996 15.0175 16.999C17.3431 16.9912 19.2226 15.0962 19.2149 12.7662C19.2072 10.4363 17.3152 8.55378 14.9896 8.56151Z" fill="#A6A6A6"/>
<path d="M9.7495 8.57878C7.42385 8.58651 5.54434 10.4815 5.55206 12.8115C5.55977 15.1415 7.4518 17.024 9.77744 17.0162C12.1031 17.0085 13.9821 15.1135 13.9744 12.7835C13.9667 10.4536 12.0751 8.57105 9.7495 8.57878ZM9.77353 15.8332C8.1029 15.8388 6.7394 14.4813 6.73386 12.8076C6.72831 11.1338 8.0828 9.76782 9.75342 9.76227C11.424 9.75672 12.7875 11.1137 12.7931 12.7874C12.7986 14.4611 11.4442 15.8277 9.77353 15.8332Z" fill="#CCCCCC"/>
<path d="M9.74885 8.57909C9.54835 8.57976 9.35126 8.59476 9.15834 8.62259C11.2053 8.90355 13.1561 10.6575 13.1632 12.7865C13.1702 14.9156 11.231 16.6824 9.18601 16.977C9.37911 17.0035 9.57629 17.0172 9.77679 17.0165C12.1024 17.0088 13.982 15.1138 13.9742 12.7838C13.9665 10.4539 12.0745 8.57136 9.74885 8.57909Z" fill="#A6A6A6"/>
<path d="M4.60206 8.59636C2.27641 8.60409 0.397369 10.4991 0.405085 12.8291C0.412801 15.159 2.30436 17.0415 4.63 17.0338C6.95565 17.0261 8.83516 15.131 8.82744 12.8011C8.81973 10.4711 6.92771 8.58863 4.60206 8.59636ZM4.62608 15.8508C2.95546 15.8563 1.59196 14.4989 1.58641 12.8252C1.58087 11.1514 2.93536 9.7854 4.60598 9.77985C6.2766 9.7743 7.64062 11.1313 7.64616 12.805C7.65166 14.4787 6.29671 15.8452 4.62608 15.8508Z" fill="#CCCCCC"/>
<path d="M4.60187 8.59667C4.40137 8.59734 4.20429 8.61234 4.01137 8.64016C6.05835 8.92113 8.00914 10.675 8.01619 12.8041C8.02324 14.9331 6.08407 16.7 4.03904 16.9946C4.23214 17.0211 4.42932 17.0348 4.62982 17.0341C6.95547 17.0264 8.83498 15.1314 8.82727 12.8014C8.81955 10.4714 6.92752 8.58894 4.60187 8.59667Z" fill="#A6A6A6"/>
</g>
<defs>
<clipPath id="clip0">
<rect width="23.9571" height="24" transform="matrix(0.999994 -0.00332369 0.00331181 0.999994 0.365234 0.829102)" fill="white"/>
</clipPath>
</defs>
</svg>
