<svg width="25" height="25" viewBox="0 0 25 25" fill="none" xmlns="http://www.w3.org/2000/svg">
<g clip-path="url(#clip0)">
<path d="M12.433 24.7911C19.0485 24.7691 24.3936 19.3787 24.3717 12.7514C24.3497 6.12398 18.969 0.769254 12.3535 0.791242C5.73794 0.81323 0.392793 6.20361 0.414742 12.831C0.43669 19.4584 5.81743 24.8131 12.433 24.7911Z" fill="#202738"/>
<path d="M12.4184 20.4208C16.6247 20.4068 20.0232 16.9795 20.0093 12.7657C19.9953 8.55187 16.5741 5.14723 12.3679 5.16121C8.16158 5.17519 4.76302 8.6025 4.77698 12.8163C4.79093 17.0301 8.21211 20.4348 12.4184 20.4208Z" fill="white"/>
<path d="M12.3678 5.16121L12.3931 12.791L4.77698 12.8163C4.76303 8.60397 8.16305 5.17519 12.3678 5.16121Z" fill="#2C44BF"/>
<path d="M12.4183 20.4208L12.3931 12.791L20.0092 12.7657C20.0231 16.978 16.6231 20.4068 12.4183 20.4208Z" fill="#2C44BF"/>
<path d="M12.4316 24.3861C19.0471 24.3641 24.3926 19.0644 24.371 12.5489C24.3494 6.03332 18.969 0.769254 12.3535 0.791242C5.73794 0.81323 0.392493 6.11295 0.414071 12.6285C0.435649 19.144 5.81608 24.4081 12.4316 24.3861Z" fill="#202738"/>
<path d="M12.4173 20.0898C16.6236 20.0758 20.0223 16.7062 20.0086 12.5635C19.9949 8.42092 16.5739 5.07399 12.3676 5.08797C8.16133 5.10195 4.76259 8.47155 4.77631 12.6142C4.79003 16.7568 8.21102 20.1037 12.4173 20.0898Z" fill="white"/>
<path d="M12.3678 5.08786C12.1669 5.08853 11.968 5.09697 11.7711 5.11267C15.6994 5.39948 18.8021 8.62271 18.8151 12.5676C18.8282 16.5125 15.7469 19.7563 11.8206 20.0692C12.0176 20.0836 12.2166 20.0907 12.4175 20.09C16.6238 20.076 20.0225 16.7064 20.0088 12.5636C19.995 8.42089 16.5741 5.07388 12.3678 5.08786Z" fill="#CFCFCF"/>
<path d="M12.3676 5.08797L12.3924 12.5891L4.77631 12.6144C4.76259 8.47312 8.16281 5.10194 12.3676 5.08797Z" fill="#2C44BF"/>
<path d="M12.4172 20.09L12.3923 12.5889L20.0084 12.5636C20.0222 16.7048 16.6219 20.076 12.4172 20.09Z" fill="#2C44BF"/>
<path d="M18.815 12.5676C18.8274 16.3089 16.0534 19.4213 12.4171 19.9979L12.4174 20.0899C16.6222 20.076 20.0224 16.7048 20.0087 12.5636L18.815 12.5675L18.815 12.5676Z" fill="#263AA3"/>
<path d="M12.3535 0.790966C12.1514 0.791638 11.9506 0.797415 11.751 0.807781C18.0876 1.09586 23.1451 6.23613 23.166 12.5527C23.1869 18.8693 18.1636 24.0431 11.8291 24.3733C12.0287 24.3824 12.2296 24.3868 12.4316 24.3861C19.0472 24.3641 24.3926 19.0644 24.371 12.5487C24.3495 6.03309 18.969 0.768978 12.3535 0.790966Z" fill="#191E2B"/>
<path d="M12.8377 1.60928C12.6581 1.60987 12.4924 1.6685 12.3568 1.7665C12.2205 1.66941 12.0544 1.61188 11.8748 1.61248C11.4175 1.614 11.0466 1.98798 11.0482 2.44614L11.0535 4.06941C11.0542 4.26356 11.2118 4.42045 11.4056 4.4198C11.5994 4.41916 11.756 4.26123 11.7554 4.06708L11.75 2.4438C11.7498 2.37335 11.8068 2.31583 11.8772 2.3156C11.9475 2.31537 12.0049 2.3725 12.0051 2.44296L12.0105 4.06623C12.0111 4.26038 12.1688 4.41727 12.3626 4.41662C12.3636 4.41662 12.3646 4.41647 12.3655 4.41647C12.3665 4.41647 12.3675 4.41661 12.3685 4.4166C12.5623 4.41596 12.7189 4.25803 12.7183 4.06388L12.7129 2.4406C12.7126 2.37015 12.7697 2.31263 12.84 2.3124C12.9103 2.31216 12.9678 2.3693 12.968 2.43976L12.9734 4.06303C12.974 4.25718 13.1316 4.41407 13.3255 4.41342C13.5193 4.41278 13.6759 4.25485 13.6752 4.06069L13.6698 2.43742C13.6683 1.97922 13.295 1.60776 12.8377 1.60928Z" fill="#EBEBEB"/>
<path d="M8.34606 3.74162C8.36695 3.56314 8.33395 3.37687 8.23785 3.20947C8.12255 3.00867 7.93608 2.86482 7.71282 2.80453C7.48947 2.74424 7.25613 2.77464 7.05578 2.8901L6.14831 3.41301C6.06761 3.4595 6.00867 3.5362 5.98445 3.62623C5.96023 3.71627 5.97267 3.81223 6.01907 3.89307L6.53243 4.78715L7.04579 5.68123C7.11093 5.79469 7.22961 5.858 7.3515 5.85759C7.41046 5.85739 7.47021 5.84229 7.52499 5.8107L8.43246 5.28779C8.84624 5.04932 8.98926 4.51808 8.75121 4.1036C8.65732 3.94008 8.51574 3.81526 8.34606 3.74162ZM7.40569 3.49963C7.45692 3.47012 7.50556 3.4768 7.53006 3.48342C7.5545 3.49004 7.6 3.50878 7.62942 3.56006C7.67445 3.63852 7.64741 3.73906 7.56909 3.78418L6.96584 4.1318L6.80244 3.84725L7.40569 3.49963ZM8.08246 4.67831L7.4792 5.02593L7.3158 4.74133L7.91905 4.39371C7.97024 4.3642 8.01897 4.37093 8.04342 4.3775C8.06787 4.38412 8.11336 4.40286 8.14278 4.45419C8.18786 4.5326 8.16078 4.63314 8.08246 4.67831Z" fill="#EBEBEB"/>
<path d="M18.5944 3.41396C18.4257 3.31828 18.2116 3.37773 18.1161 3.5467L17.3179 4.95932C17.2953 4.99942 17.2599 5.01426 17.2409 5.01953C17.2218 5.02475 17.1839 5.03022 17.144 5.00757C17.104 4.98487 17.0893 4.94953 17.084 4.93052C17.0787 4.9115 17.0732 4.87355 17.0959 4.83344L17.8942 3.42078C17.9897 3.25181 17.9304 3.03732 17.7617 2.94164C17.7608 2.94118 17.76 2.94081 17.7591 2.94034C17.7582 2.93983 17.7575 2.93922 17.7566 2.93875C17.5879 2.84313 17.3738 2.90253 17.2783 3.0715L16.48 4.48411C16.4574 4.52422 16.4221 4.53906 16.4031 4.54432C16.384 4.54954 16.3461 4.55501 16.3062 4.53236C16.2662 4.50967 16.2514 4.47433 16.2462 4.45531C16.2409 4.4363 16.2354 4.39835 16.2581 4.35824L17.0564 2.94558C17.1519 2.77661 17.0925 2.56211 16.9239 2.46644C16.7551 2.37077 16.541 2.43026 16.4456 2.59919L15.6473 4.0118C15.5382 4.20496 15.5107 4.42912 15.5698 4.643C15.629 4.85688 15.7677 5.03492 15.9605 5.1442C16.0877 5.21634 16.2283 5.25286 16.3706 5.25239C16.399 5.25229 16.4274 5.25028 16.4559 5.24718C16.5282 5.40322 16.6461 5.53296 16.7984 5.61936C16.9256 5.6915 17.0662 5.72802 17.2085 5.72754C17.2819 5.7273 17.3558 5.71721 17.4285 5.69705C17.6419 5.63779 17.8197 5.49878 17.9288 5.30562L18.7271 3.89295C18.8224 3.72412 18.7631 3.50958 18.5944 3.41396Z" fill="#EBEBEB"/>
</g>
<defs>
<clipPath id="clip0">
<rect width="23.9571" height="24" transform="matrix(0.999994 -0.00332369 0.00331181 0.999994 0.375 0.831055)" fill="white"/>
</clipPath>
</defs>
</svg>
