<svg width="25" height="25" viewBox="0 0 25 25" fill="none" xmlns="http://www.w3.org/2000/svg">
<g clip-path="url(#clip0)">
<path d="M24.6663 7.2744L23.9846 8.85467C23.9748 8.87754 23.9693 8.9016 23.9685 8.92654C23.9521 9.43191 23.7495 14.9494 22.6776 16.4886C21.1686 17.6392 12.7449 19.4435 12.7449 19.4435C12.7449 19.4435 4.30927 17.6952 2.79263 16.5547C1.71767 15.0224 1.47209 9.50499 1.4518 9.00114C1.45078 8.9764 1.44522 8.95246 1.43528 8.92981L0.742674 7.34885C0.688313 7.22477 0.771414 7.08354 0.905015 7.07287L12.7008 6.13108L24.5023 6.99937C24.636 7.00919 24.72 7.15 24.6663 7.2744Z" fill="#A6A6A6"/>
<path d="M24.5021 6.99969L23.0319 6.89151L22.5722 8.1522C22.5623 8.17919 22.5569 8.20766 22.5561 8.2371C22.54 8.83308 22.3414 15.3283 21.2759 17.1609C21.9081 16.9253 22.4053 16.6965 22.6775 16.4889C23.7493 14.9497 23.9519 9.43219 23.9683 8.92682C23.9691 8.90192 23.9746 8.87781 23.9845 8.85495L24.6662 7.27468C24.7198 7.15033 24.6359 7.00951 24.5021 6.99969Z" fill="#8C8C8C"/>
<path d="M12.7449 19.4435C12.7449 19.4435 4.30932 17.6952 2.79268 16.5547C1.71767 15.0224 1.47209 9.50499 1.4518 9.00114C1.45078 8.9764 1.44522 8.95246 1.43528 8.92981L0.742674 7.34885C0.688313 7.22477 0.771414 7.08354 0.905015 7.07287L12.7008 6.13108L12.7449 19.4435Z" fill="#CCCCCC"/>
<path d="M21.5002 8.30451C21.5567 8.30433 21.6005 8.35396 21.5933 8.4101L21.5133 9.03957L21.511 9.05837L21.4663 9.39518C21.4598 9.49266 21.4602 9.58523 21.4537 9.68271C21.4529 9.71599 21.452 9.74881 21.4507 9.78209C21.4437 9.98664 21.4328 10.1936 21.4219 10.3972C21.3756 11.1204 21.31 11.8301 21.2225 12.4902C21.2066 12.6157 21.1891 12.7393 21.1712 12.8609C21.1608 12.9332 21.15 13.0046 21.1392 13.0761C21.0915 13.3801 21.0404 13.6706 20.9854 13.9409C20.9721 14.008 20.9588 14.0732 20.9446 14.1378C20.8658 14.5023 20.7801 14.8286 20.6879 15.1043C20.677 15.1372 20.666 15.17 20.655 15.2014C20.6507 15.2149 20.6459 15.2284 20.6411 15.241C20.6254 15.2849 20.6096 15.3279 20.5929 15.3685C20.5833 15.3922 20.5747 15.4149 20.5651 15.4371C20.5575 15.4578 20.5479 15.4782 20.5393 15.4974C19.456 16.021 15.8541 17.0097 12.7396 17.7132L12.7391 17.7132C11.2756 17.3925 9.83942 17.0466 8.58838 16.7126C7.53904 16.433 6.62999 16.1683 5.94185 15.9352C5.89988 15.9214 5.85838 15.907 5.81833 15.8932C5.44048 15.7637 5.13108 15.6461 4.92444 15.5455C4.88367 15.4569 4.84863 15.36 4.80682 15.254C4.80243 15.2415 4.79808 15.2285 4.79369 15.2155C4.73622 15.0435 4.67728 14.8498 4.61968 14.6377C4.58111 14.4922 4.54396 14.338 4.50777 14.176C4.45297 13.9336 4.40101 13.6742 4.35337 13.4019C4.33029 13.2722 4.30814 13.1401 4.28743 13.0051C4.27806 12.9434 4.26873 12.8812 4.25935 12.819C4.24604 12.7293 4.2332 12.6387 4.22087 12.5466C4.1507 12.0269 4.08715 11.4734 4.04385 10.9029C4.01587 10.6073 4.0014 10.3069 3.97916 10.0069L3.95659 9.44944L3.80933 8.35938L12.7086 8.33364L21.5002 8.30442L21.5002 8.30451Z" fill="#CCCCCC"/>
<path d="M21.511 9.05859L21.4664 9.39539C21.4599 9.49287 21.4602 9.58545 21.4538 9.68292C21.453 9.71621 21.4521 9.74902 21.4508 9.78231L16.8103 9.79773L16.8079 9.07422L21.511 9.05859Z" fill="#2C44BF"/>
<path d="M17.065 11.0268L12.4917 11.042L12.4941 11.7655L17.0674 11.7503L17.065 11.0268Z" fill="#2C44BF"/>
<path d="M12.8584 13.1148L8.33423 13.1299L8.33662 13.8534L12.8608 13.8384L12.8584 13.1148Z" fill="#2C44BF"/>
<path d="M8.84849 15.2023L8.85089 15.9259L5.9418 15.9355C5.89983 15.9217 5.85833 15.9073 5.81828 15.8935C5.46928 15.7739 5.17867 15.6644 4.97351 15.5691C4.9422 15.5546 4.91681 15.5298 4.90322 15.498C4.86658 15.4122 4.83301 15.3191 4.79224 15.2179C4.79289 15.2169 4.79294 15.2168 4.79359 15.2158L8.84849 15.2023Z" fill="#2C44BF"/>
<path d="M8.57452 12.5324L8.58145 14.6247L4.61948 14.6379C4.46651 14.0551 4.32684 13.337 4.22119 12.5469L8.57452 12.5324Z" fill="#E82934"/>
<path d="M12.7289 14.6112L12.7392 17.7138C11.2756 17.3932 9.83932 17.0471 8.58846 16.7131L8.58154 14.625L12.7289 14.6112Z" fill="#E82934"/>
<path d="M21.2227 12.4903C21.2063 12.6158 21.1891 12.7393 21.1712 12.8608C21.161 12.9337 21.1501 13.0055 21.1391 13.0764C21.0914 13.3805 21.0404 13.6709 20.9854 13.9411C20.9712 14.008 20.9578 14.0735 20.9437 14.138C20.9311 14.1946 20.9185 14.2502 20.9059 14.3048C20.8349 14.6006 20.7639 14.8709 20.688 15.1043C20.6769 15.1373 20.6658 15.1703 20.6548 15.2018C20.6508 15.2151 20.646 15.2284 20.6413 15.2412C20.6271 15.285 20.6104 15.3279 20.5946 15.3687C20.5851 15.3919 20.5755 15.415 20.5652 15.4372C20.5639 15.4407 20.5625 15.4441 20.5611 15.4475C20.5477 15.4803 20.5219 15.5062 20.4898 15.5211C19.3503 16.0502 15.8083 17.0204 12.7394 17.7134L12.7222 12.5186L21.2227 12.4903Z" fill="#F3DB53"/>
<path d="M20.9443 14.1377C20.8656 14.5024 20.7796 14.8284 20.6879 15.1041C20.6768 15.1371 20.6657 15.17 20.6546 15.2016C20.6507 15.2149 20.6459 15.2282 20.6411 15.241C20.6269 15.2848 20.6103 15.3276 20.5944 15.3685L12.7316 15.3947L12.7275 14.165L20.9443 14.1377Z" fill="#202738"/>
<path d="M12.7082 8.33378L12.7221 12.5184L4.22088 12.5467C4.157 12.0777 4.09944 11.5811 4.05699 11.0697C4.05198 11.0141 4.04782 10.9586 4.04366 10.903C4.0155 10.6075 4.00093 10.307 3.97916 10.007L3.9722 9.84032L3.95654 9.44934L3.82343 8.4654C3.81586 8.40923 3.85935 8.3592 3.91592 8.35906L12.7082 8.33378Z" fill="#F3DB53"/>
<path d="M21.4214 10.3973C21.3758 11.1203 21.3095 11.8306 21.2224 12.4903L16.972 12.5045L16.9651 10.4121L21.4214 10.3973Z" fill="#E82934"/>
<path d="M12.7131 9.81177L12.7172 11.0414L4.05695 11.0702C4.05195 11.0146 4.04779 10.9591 4.04363 10.9035C4.01546 10.608 4.0009 10.3075 3.97913 10.0075L3.97217 9.84082L12.7131 9.81177Z" fill="#202738"/>
<path d="M16.9582 8.31986L12.7078 8.33398L12.7147 10.4242L16.9652 10.4101L16.9582 8.31986Z" fill="#E82934"/>
</g>
<defs>
<clipPath id="clip0">
<rect width="23.9571" height="24" transform="matrix(0.999994 -0.00332369 0.00331181 0.999994 0.704346 0.827148)" fill="white"/>
</clipPath>
</defs>
</svg>
