<svg width="25" height="25" viewBox="0 0 25 25" fill="none" xmlns="http://www.w3.org/2000/svg">
<g clip-path="url(#clip0)">
<path d="M24.8552 10.2535C24.8553 10.2774 24.8505 10.3009 24.8418 10.3215L24.8341 10.3376L22.3102 15.3376C22.302 15.3528 22.2918 15.3666 22.2802 15.3783C22.2705 15.3882 22.2598 15.3965 22.2482 15.4039C22.222 15.4206 22.1904 15.43 22.1573 15.4301L17.5475 15.4454C17.4803 15.4457 17.4211 15.4801 17.3862 15.5326C17.3654 15.5639 17.3534 15.6016 17.3535 15.6417L17.3583 17.0974C17.3585 17.1458 17.3392 17.1894 17.3076 17.2213C17.2761 17.2532 17.2329 17.2729 17.1848 17.2731L8.615 17.3016C8.56732 17.3017 8.52346 17.2823 8.49177 17.2506C8.46003 17.2189 8.44042 17.1755 8.44026 17.127L8.43544 15.6714C8.43514 15.5794 8.37214 15.5028 8.28691 15.4821C8.27183 15.4782 8.25624 15.4763 8.24019 15.4764L1.08951 15.5001C1.02677 15.5003 0.971679 15.4673 0.940864 15.417C0.924259 15.3907 0.914891 15.3594 0.914779 15.3256C0.9147 15.3017 0.91949 15.2787 0.92817 15.2576L0.935884 15.2415L3.46024 10.241C3.46847 10.2263 3.47863 10.2125 3.49028 10.2007C3.49952 10.1909 3.51016 10.1826 3.52183 10.1752C3.54803 10.159 3.57962 10.1491 3.61322 10.149L8.22259 10.1336C8.27612 10.1335 8.32466 10.1113 8.36006 10.0759C8.39499 10.0406 8.41668 9.99162 8.4165 9.93733L8.41166 8.47728C8.4115 8.42886 8.43083 8.38525 8.46235 8.35336C8.49388 8.32147 8.53756 8.30174 8.58524 8.30158L17.155 8.27309C17.2027 8.27294 17.2465 8.29234 17.2782 8.32406C17.2953 8.34111 17.3085 8.36113 17.3174 8.38407C17.3252 8.40359 17.3297 8.42514 17.3297 8.44764L17.3346 9.90769C17.3347 9.94829 17.347 9.98593 17.368 10.0167L17.368 10.0171C17.4032 10.0689 17.4627 10.1029 17.5298 10.1027L24.6805 10.0789C24.7286 10.0788 24.772 10.0982 24.8037 10.1299C24.8135 10.1397 24.8218 10.1504 24.8291 10.1621C24.8457 10.1884 24.8551 10.2197 24.8552 10.2535Z" fill="#CCCCCC"/>
<path d="M9.73581 14.1534L9.79856 15.9222L8.73679 17.001L8.49196 17.2498C8.46022 17.2181 8.44061 17.1747 8.44045 17.1262L8.43563 15.6705C8.43533 15.5786 8.37233 15.502 8.2871 15.4812L9.73581 14.1534Z" fill="#E3E3E3"/>
<path d="M9.7779 9.67189L9.72688 11.4452L8.3602 10.0757C8.39513 10.0404 8.41682 9.99141 8.41664 9.93713L8.4118 8.47708C8.41164 8.42865 8.43096 8.38504 8.46249 8.35316L8.70896 8.60031L9.7779 9.67189Z" fill="#E3E3E3"/>
<path d="M17.2782 8.32383L17.0334 8.57262L15.9716 9.65146L9.7777 9.67205L8.7088 8.60028L8.46233 8.35313C8.49385 8.32125 8.53754 8.30151 8.58522 8.30135L17.155 8.27287C17.2027 8.27271 17.2465 8.29211 17.2782 8.32383Z" fill="#A6A6A6"/>
<path d="M17.3076 17.2207C17.276 17.2526 17.2328 17.2724 17.1847 17.2725L8.61492 17.301C8.56724 17.3012 8.52338 17.2818 8.49169 17.25L8.73652 17.0012L9.79829 15.9224L15.9922 15.9018L17.0611 16.9736L17.3076 17.2207Z" fill="#A6A6A6"/>
<path d="M4.35409 11.5398L3.08941 14.0822L1.23794 15.2318L1.23649 15.2328L0.942312 15.4157L0.940865 15.4167C0.924214 15.3903 0.914845 15.3591 0.914734 15.3253C0.914654 15.3014 0.919444 15.2783 0.928125 15.2573L0.935839 15.2412L3.46019 10.2407C3.46842 10.226 3.47858 10.2122 3.49024 10.2004C3.49947 10.1906 3.51011 10.1823 3.52179 10.1749L3.70376 10.4731L4.35409 11.5398Z" fill="#E3E3E3"/>
<path d="M24.855 10.2528C24.8551 10.2768 24.8503 10.3003 24.8416 10.3209L24.8339 10.337L22.3101 15.337C22.3018 15.3522 22.2917 15.3659 22.28 15.3777C22.2703 15.3875 22.2596 15.3959 22.248 15.4033L22.0665 15.1055L21.4056 14.0213L22.6804 11.4954L24.5328 10.3454L24.8289 10.1614C24.8455 10.1878 24.8549 10.2191 24.855 10.2528Z" fill="#8C8C8C"/>
<path d="M17.3679 10.0164L17.3679 10.0168C17.3679 10.0168 16.0792 11.3423 16.0704 11.3423C16.066 11.3369 15.9772 11.395 15.9772 11.395L15.9714 9.65121L17.2781 8.32377C17.2781 8.32377 17.2932 8.34669 17.3172 8.38378C17.325 8.4033 17.3295 8.42485 17.3296 8.44735L17.3344 9.9074C17.3346 9.94804 17.3468 9.98564 17.3679 10.0164Z" fill="#8C8C8C"/>
<path d="M17.3862 15.5323C17.3654 15.5637 17.3534 15.6014 17.3535 15.6415L17.3583 17.0972C17.3585 17.1456 17.3392 17.1892 17.3076 17.2211L15.9922 15.9024L15.9866 14.1992L16.0926 14.1989L17.3862 15.5323Z" fill="#8C8C8C"/>
<path d="M22.6882 11.6875L21.5164 14.0089C21.4834 14.0744 21.4166 14.1157 21.3435 14.1159L16.2378 14.1329C16.1303 14.1333 16.0435 14.2212 16.0439 14.3292L16.0486 15.7643C16.049 15.8724 15.9621 15.9603 15.8547 15.9606L9.93622 15.9803C9.82874 15.9807 9.74132 15.8933 9.74096 15.7853L9.73621 14.3502C9.73585 14.2422 9.64844 14.1549 9.54096 14.1552L3.25577 14.1761C3.1103 14.1766 3.01579 14.0223 3.08161 13.8919L4.25344 11.5705C4.28649 11.505 4.35327 11.4637 4.42631 11.4634L9.53204 11.4465C9.63951 11.4461 9.72635 11.3582 9.72599 11.2502L9.72123 9.81117C9.72087 9.70312 9.8077 9.61522 9.91518 9.61486L15.8336 9.59519C15.9411 9.59484 16.0285 9.68215 16.0289 9.7902L16.0336 11.2292C16.034 11.3373 16.1214 11.4246 16.2289 11.4242L22.5141 11.4033C22.6595 11.4028 22.7541 11.5571 22.6882 11.6875Z" fill="#F3DB53"/>
<path d="M12.8744 9.60405L12.8955 15.9696L9.93622 15.9794C9.82874 15.9798 9.74132 15.8924 9.74096 15.7844L9.73621 14.3493C9.73585 14.2413 9.64844 14.1539 9.54096 14.1543L3.25577 14.1752C3.1103 14.1757 3.01579 14.0214 3.08161 13.891L4.25344 11.5696C4.28649 11.5041 4.35327 11.4628 4.42631 11.4625L9.53204 11.4456C9.63951 11.4452 9.72635 11.3573 9.72599 11.2492L9.72123 9.81024C9.72087 9.70219 9.8077 9.61429 9.91518 9.61393L12.8744 9.60405Z" fill="#F3C153"/>
</g>
<defs>
<clipPath id="clip0">
<rect width="23.9571" height="24" transform="matrix(0.999994 -0.00332369 0.00331181 0.999994 0.866699 0.827148)" fill="white"/>
</clipPath>
</defs>
</svg>
