<svg width="16" height="16" viewBox="0 0 16 16" fill="none" xmlns="http://www.w3.org/2000/svg">
<path d="M9.06816 7.98795L15.8731 1.21365C16.0404 1.04704 16.0404 0.779843 15.8731 0.613236C15.7057 0.44663 15.4373 0.44663 15.2699 0.613236L8.1619 7.68931C7.99454 7.85592 7.99454 8.12312 8.1619 8.28972L15.2699 15.3627C15.352 15.4444 15.4626 15.4884 15.5699 15.4884C15.6773 15.4884 15.7878 15.4475 15.8699 15.3627C16.0373 15.196 16.0373 14.9288 15.8699 14.7622L9.06816 7.98795Z" fill="white"/>
<path d="M7.92891 7.98795L1.12401 1.21365C0.956647 1.04704 0.956647 0.779843 1.12401 0.613236C1.29137 0.44663 1.55977 0.44663 1.72713 0.613236L8.83517 7.68931C9.00253 7.85592 9.00253 8.12312 8.83517 8.28972L1.72713 15.3627C1.64503 15.4444 1.53451 15.4884 1.42715 15.4884C1.31979 15.4884 1.20926 15.4475 1.12716 15.3627C0.959804 15.196 0.959804 14.9288 1.12716 14.7622L7.92891 7.98795Z" fill="white"/>
</svg>
