<svg width="25" height="25" viewBox="0 0 25 25" fill="none" xmlns="http://www.w3.org/2000/svg">
<g clip-path="url(#clip0)">
<path d="M12.2329 18.5793C18.8465 18.5573 24.2069 15.9466 24.1963 12.7444C24.1857 9.55427 18.8082 6.97923 12.1945 7.00122C5.57258 7.02323 0.228802 9.63389 0.239367 12.824C0.249972 16.0262 5.61092 18.6013 12.2329 18.5793Z" fill="#00539E"/>
<path d="M12.1945 7.00093C11.9923 7.0016 11.7913 7.00475 11.5916 7.0102C17.9264 7.14083 22.9809 9.65534 22.9911 12.7481C23.0014 15.8526 17.9636 18.4009 11.6299 18.5737C11.8296 18.5778 12.0306 18.5796 12.2328 18.5789C18.8465 18.557 24.2068 15.9463 24.1962 12.7441C24.1857 9.55397 18.8081 6.97894 12.1945 7.00093Z" fill="#004380"/>
<path d="M10.2322 15.4876C9.76909 15.4874 9.38872 15.26 9.21187 14.8995C9.13457 14.9565 9.04012 15.0173 8.93037 15.0806L8.92607 15.0831L8.90669 15.0931C8.84008 15.1283 8.77967 15.1574 8.71444 15.1574C8.67514 15.1574 8.63781 15.1463 8.60658 15.1253L8.59687 15.1188L8.58814 15.1111C8.48954 15.0233 8.42144 14.905 8.40611 14.7947L8.36627 14.5086L8.56708 14.5869C8.59135 14.5685 8.62313 14.5436 8.65594 14.5178L8.70798 14.477C8.97136 14.2774 9.03609 14.1249 9.03669 14.1234L9.03966 14.1152L9.04221 14.1107C9.10328 13.9841 9.19804 13.8029 9.28164 13.643L9.35078 13.5105C9.71611 12.7841 10.2581 12.387 10.9173 12.3641L10.9232 12.364C11.099 12.3641 11.1837 12.4444 11.2319 12.5153C11.241 12.5242 11.4293 12.3896 11.5522 12.3897C11.5974 12.3897 11.6915 12.3897 11.7749 12.4734C11.9384 12.6372 12.0337 12.8898 12.0704 13.121C12.3766 12.761 12.6997 12.4259 12.9948 12.3261C13.0942 12.2792 13.1862 12.2788 13.261 12.2788C13.2709 12.2786 13.2807 12.2785 13.2903 12.2784C13.5286 12.2785 13.7122 12.3514 13.8359 12.4952C13.8775 12.5434 13.9082 12.5952 13.9306 12.6469C14.1498 12.4449 14.3759 12.3215 14.6588 12.3216C14.679 12.3216 14.6994 12.3222 14.7201 12.3234C15.1441 12.3447 15.3378 12.6552 15.3377 12.9346L15.3376 12.9412C15.3256 13.2511 15.0926 13.5784 14.7233 13.5894L14.7182 13.5894C14.4883 13.5894 14.3091 13.5022 14.1905 13.335C14.1718 13.3712 14.1565 13.4222 14.1451 13.4964L14.1443 13.5007C15.0719 14.0443 15.3627 13.2703 15.4667 13.1616C15.87 12.7394 16.2509 12.3406 16.9727 12.3409L16.9927 12.341C17.383 12.3477 17.5928 12.5506 17.7147 12.7399L18.6836 11.1044C18.6984 11.0794 18.7252 11.0641 18.7543 11.0641L19.6247 11.0644C19.6876 11.0644 19.7272 11.1321 19.6963 11.187C19.3409 11.8173 17.735 14.6664 17.7221 14.7021C17.8909 14.661 18.1175 14.3974 18.6397 13.8487C18.6397 13.8487 18.8083 13.6364 19.0145 13.7039C19.1369 13.744 19.2868 13.8084 19.2867 13.9582C19.2866 14.0826 18.6873 15.4596 17.4443 15.4636L17.4398 15.4637C17.1582 15.4636 16.9729 15.3723 16.8713 15.18C16.6173 15.312 16.2185 15.4378 15.8234 15.4377C15.4312 15.4296 15.1539 15.2441 14.996 14.8862C14.934 14.754 14.9016 14.5959 14.9009 14.4344C14.7628 14.4686 14.6243 14.4778 14.4732 14.4777C14.4327 14.4777 14.3906 14.4769 14.3466 14.4757C14.028 14.468 13.7956 14.3465 13.6436 14.1063L13.5926 14.1997C13.4054 14.5418 13.0391 15.2243 12.9438 15.402C12.9295 15.4287 12.9018 15.4451 12.8716 15.4451L11.9433 15.4447C11.88 15.4447 11.8405 15.3761 11.8722 15.3212L12.8095 13.6988C12.8964 13.3514 12.3363 13.8289 11.8965 14.3565C11.5571 14.763 11.0712 15.4879 10.2322 15.4876ZM10.299 14.423C10.9417 14.4208 11.1739 13.5898 11.0679 13.5009C10.8279 13.2999 10.2484 13.4653 10.1299 14.0847C10.0959 14.2626 10.171 14.3926 10.299 14.423ZM16.1673 13.6868C16.0264 13.8199 15.9016 14.1197 15.9638 14.2865C15.9868 14.3481 16.3969 14.5356 16.7673 14.0621C16.8829 13.9143 16.9715 13.6952 16.9208 13.5386C16.8971 13.4652 16.6082 13.2704 16.1673 13.6868Z" fill="white"/>
<path d="M6.73634 12.0782C6.49574 12.079 6.26769 11.9826 6.09421 11.8069C5.90059 11.6107 5.78754 11.3269 5.79186 11.0477C5.79516 10.5626 6.0562 10.1217 6.52687 9.80789C7.05692 9.45442 8.03137 8.85315 10.1643 9.14254C10.8321 9.23314 12.3532 9.81294 14.6707 9.58844C14.7456 9.58121 14.7761 9.56433 14.8802 9.56398C15.0308 9.56348 15.2105 9.61463 15.2113 9.86106C15.2127 10.2953 14.1215 10.7824 13.3808 10.7849C12.5004 10.7878 11.6077 10.4926 10.956 10.277C10.7091 10.1953 10.4961 10.1249 10.3427 10.0908C9.75278 9.95485 9.18858 9.83321 8.75493 9.83465C7.63466 9.83838 7.13679 10.19 6.93975 10.3992C6.78327 10.5653 6.70617 10.7532 6.71676 10.9425C6.72552 11.0718 6.80985 11.1469 6.94788 11.1465C6.97427 11.1464 7.00234 11.1435 7.03143 11.1379C7.30864 11.0884 7.70433 10.8113 7.7897 10.6081C7.83084 10.5112 7.92444 10.4472 8.02837 10.4485C8.26136 10.4513 8.27378 10.6724 8.25734 10.7521C8.20365 11.1254 7.66752 12.0751 6.73634 12.0782Z" fill="white"/>
<path d="M6.25191 15.395C5.33532 15.3981 4.68079 14.7732 4.66027 13.8753C4.65419 13.5637 4.7781 13.2269 5.00024 12.9506C5.24651 12.6443 5.59061 12.4287 5.9953 12.3271L6.01643 12.3218L6.03819 12.3217C6.24945 12.321 6.34445 12.4531 6.34488 12.5843C6.34506 12.6377 6.3244 12.7713 6.12943 12.8588L6.12424 12.8611L6.11892 12.8631C5.96671 12.92 5.60932 13.3049 5.61046 13.6479C5.61123 13.8814 5.75705 14.1558 5.99976 14.211L6.00664 14.2127C7.06325 14.4294 7.61536 13.5868 8.5774 12.2875C8.352 12.3303 8.13781 12.3934 8.08197 12.4581C8.08197 12.4581 7.93783 12.5506 7.87546 12.5508C7.75806 12.5512 7.66145 12.4698 7.62935 12.3433L7.6239 12.3219L7.62383 12.2999C7.62355 12.2158 7.68601 12.1138 7.71014 12.0817L7.71442 12.0759L7.71918 12.0705C7.97422 11.7813 8.54978 11.6765 9.02807 11.6182C9.71583 10.5643 9.91389 10.4766 10.0843 10.4761C10.1301 10.4759 10.166 10.4858 10.1951 10.4955L10.2133 10.5015C10.3151 10.5352 10.6835 10.7408 10.1864 11.406C10.2768 11.3932 10.5045 11.3767 10.5585 11.313C10.6792 10.6387 11.4483 10.4528 11.667 11.1573C11.758 11.4502 11.5502 11.6339 11.3743 11.7617C10.9601 12.0628 10.2368 12.1612 9.87734 12.24C8.2433 14.899 7.39122 15.3913 6.25191 15.395Z" fill="white"/>
<path d="M12.2322 18.25C9.23095 18.26 6.40417 17.7324 4.27261 16.7645C2.05403 15.757 0.829471 14.3778 0.824513 12.8809C0.81957 11.3884 2.03503 10.0043 4.24698 8.98359C6.37326 8.00236 9.19639 7.45649 12.1964 7.44652C15.1939 7.43656 18.0209 7.9636 20.1566 8.93062C22.3797 9.93723 23.6067 11.3132 23.6117 12.8051C23.6166 14.3016 22.3988 15.6889 20.1825 16.7117C18.0544 17.6937 15.2309 18.2401 12.2322 18.25ZM12.1987 8.14964C9.29716 8.15928 6.57751 8.68226 4.54066 9.62218C2.62112 10.508 1.52246 11.6949 1.52638 12.8785C1.53037 14.0843 2.60856 15.2369 4.56233 16.124C6.60415 17.0512 9.32716 17.5565 12.2298 17.5469C15.1302 17.5372 17.8502 17.0138 19.8889 16.073C21.8127 15.1853 22.9137 13.995 22.9098 12.8075C22.9059 11.6245 21.797 10.445 19.8675 9.57133C17.8215 8.64489 15.0979 8.14 12.1987 8.14964Z" fill="white"/>
</g>
<defs>
<clipPath id="clip0">
<rect width="23.9571" height="24" transform="matrix(0.999994 -0.00332369 0.00331181 0.999994 0.199707 0.830078)" fill="white"/>
</clipPath>
</defs>
</svg>
