<svg width="25" height="25" viewBox="0 0 25 25" fill="none" xmlns="http://www.w3.org/2000/svg">
<g clip-path="url(#clip0)">
<path d="M12.519 0.791242C5.90604 0.813221 0.558318 6.2029 0.580263 12.8291C0.60222 19.4591 5.98552 24.8131 12.5985 24.7911C19.2114 24.7691 24.5592 19.3795 24.5372 12.7495C24.5153 6.12327 19.132 0.769262 12.519 0.791242ZM12.5929 23.1017C6.91808 23.1206 2.28638 18.5103 2.26755 12.8249C2.24872 7.13901 6.84979 2.49806 12.5246 2.4792C18.1989 2.46034 22.8311 7.0706 22.8499 12.7565C22.8688 18.4419 18.2672 23.0829 12.5929 23.1017Z" fill="#CCCCCC"/>
<path d="M12.5189 0.791141C12.2352 0.792084 11.9541 0.803612 11.6754 0.823992C17.8965 1.23719 22.8288 6.41303 22.8499 12.755C22.8709 19.1006 17.9728 24.3092 11.7547 24.7638C12.0335 24.7823 12.3147 24.792 12.5984 24.791C19.2114 24.769 24.5591 19.3794 24.5371 12.7494C24.5152 6.12317 19.1319 0.769162 12.5189 0.791141Z" fill="#8C8C8C"/>
<path d="M21.6253 17.8522C21.6248 17.8531 21.6243 17.8541 21.6238 17.855L21.6234 17.856C21.6201 17.8617 21.6144 17.8656 21.6077 17.868L21.6072 17.868L21.5022 17.8282L12.6632 14.5085C12.5991 14.4845 12.5284 14.4847 12.4644 14.5092L3.64888 17.8866L3.54223 17.9276C3.53605 17.9252 3.5308 17.9214 3.52741 17.9161L3.52694 17.9152C3.526 17.9142 3.52548 17.9133 3.52548 17.9119C3.52166 17.9047 3.52112 17.8966 3.52348 17.8875L3.6005 17.817L10.4478 11.5828C10.4909 11.5435 10.5208 11.4917 10.5332 11.4346L12.4721 2.53516L12.4764 2.51654L12.4886 2.4587C12.4942 2.44818 12.5018 2.44005 12.5104 2.43617C12.5143 2.43377 12.5185 2.43282 12.5233 2.4328L12.5242 2.4328C12.5281 2.43279 12.5323 2.43371 12.5362 2.43562C12.5453 2.4399 12.5534 2.44845 12.5591 2.46039C12.5596 2.46039 12.5596 2.46085 12.5596 2.46132L12.5717 2.51524L12.5761 2.53528L14.5734 11.4212C14.5862 11.4782 14.6165 11.5298 14.6599 11.5688L21.5477 17.7569C21.5482 17.7564 21.5482 17.7569 21.5487 17.7574L21.6276 17.8283C21.6276 17.8287 21.6276 17.8287 21.6276 17.8287C21.6295 17.8373 21.6291 17.8455 21.6253 17.8522Z" fill="#8C8C8C"/>
<path d="M12.524 2.43285L12.5566 12.2859L3.66179 17.8274L3.52572 17.9119C3.52191 17.9047 3.52137 17.8966 3.52372 17.8875L3.60074 17.817L10.448 11.5828C10.4911 11.5435 10.521 11.4917 10.5335 11.4346L12.4724 2.53516L12.4766 2.51654L12.4888 2.4587C12.4945 2.44818 12.5021 2.44005 12.5107 2.43617C12.5145 2.43377 12.5188 2.43282 12.5235 2.4328L12.524 2.43285Z" fill="#E3E3E3"/>
<path d="M21.6255 17.8529L21.4888 17.7688L12.557 12.2867L12.5244 2.43359C12.5283 2.43358 12.5325 2.4345 12.5364 2.43641C12.5454 2.4407 12.5536 2.44925 12.5593 2.46118C12.5598 2.46118 12.5598 2.46165 12.5598 2.46212C12.5598 2.46212 12.5603 2.46212 12.5603 2.46258L12.5718 2.51411L12.5767 2.53556L14.5745 11.422C14.5873 11.479 14.6175 11.5305 14.6609 11.5696L21.5488 17.7581L21.6277 17.8285C21.6272 17.829 21.6277 17.829 21.6277 17.829C21.6277 17.8295 21.6277 17.8295 21.6277 17.8295C21.6297 17.838 21.6293 17.8462 21.6255 17.8529Z" fill="#CCCCCC"/>
</g>
<defs>
<clipPath id="clip0">
<rect width="23.9571" height="24" transform="matrix(0.999994 -0.00332369 0.00331181 0.999994 0.540527 0.831055)" fill="white"/>
</clipPath>
</defs>
</svg>
