<svg width="25" height="25" viewBox="0 0 25 25" fill="none" xmlns="http://www.w3.org/2000/svg">
<g clip-path="url(#clip0)">
<path d="M12.5126 1.91313C6.51672 1.93306 1.67189 6.81842 1.69178 12.8255C1.71167 18.8321 6.58876 23.6856 12.5846 23.6657C18.581 23.6458 23.4253 18.7599 23.4054 12.7533C23.3856 6.7462 18.509 1.8932 12.5126 1.91313ZM12.5766 21.2487C7.91298 21.2642 4.11988 17.4895 4.10441 12.8175C4.08894 8.14548 7.857 4.34563 12.5206 4.33013C17.1842 4.31463 20.9773 8.08944 20.9928 12.7613C21.0083 17.4333 17.2403 21.2332 12.5766 21.2487Z" fill="#A6A6A6"/>
<path d="M11.9176 4.35394C11.7182 4.34049 11.5172 4.33356 11.3143 4.33424C6.65067 4.34974 2.88266 8.14968 2.89813 12.8216C2.91361 17.4936 6.70671 21.2684 11.3703 21.2529C11.5732 21.2522 11.7742 21.2439 11.9735 21.2292C7.59037 20.9339 4.11925 17.2864 4.10445 12.8176C4.08969 8.34888 7.53654 4.67834 11.9176 4.35394Z" fill="#8C8C8C"/>
<path d="M12.5126 1.91303C12.3101 1.91371 12.1091 1.92038 11.9095 1.93201C17.6262 2.2266 22.1799 6.95298 22.1992 12.7572C22.2184 18.5611 17.6961 23.3181 11.9815 23.6506C12.1812 23.6609 12.3822 23.6663 12.5846 23.6656C18.581 23.6457 23.4253 18.7598 23.4054 12.7532C23.3855 6.7461 18.5089 1.8931 12.5126 1.91303Z" fill="#8C8C8C"/>
<path d="M24.3508 15.9843L0.768638 16.0627C0.665183 16.063 0.580962 15.9792 0.580619 15.8756L0.560436 9.78148C0.560093 9.67784 0.64371 9.59347 0.747212 9.59313L24.3294 9.51475C24.4329 9.5144 24.517 9.59817 24.5174 9.70186L24.5376 15.7959C24.5378 15.8996 24.4543 15.9839 24.3508 15.9843Z" fill="#CCCCCC"/>
<path d="M24.3506 15.9847L23.3329 15.9881L23.3115 9.51855L24.3292 9.51517C24.4327 9.51483 24.5169 9.5986 24.5172 9.70228L24.5374 15.7964C24.5377 15.9 24.4542 15.9843 24.3506 15.9847Z" fill="#A6A6A6"/>
<path d="M5.06777 10.6647C4.87391 10.6653 4.71736 10.8236 4.718 11.0182L4.72641 13.5574L2.65701 10.8133C2.56597 10.6925 2.40803 10.6438 2.26496 10.6922C2.12194 10.7407 2.02581 10.8756 2.02631 11.0272L2.03822 14.6213C2.03886 14.8159 2.19646 14.9731 2.39031 14.9724C2.58417 14.9718 2.74072 14.8135 2.74008 14.6189L2.73167 12.0797L4.80107 14.8238C4.86889 14.9138 4.97382 14.9638 5.08205 14.9635C5.11915 14.9633 5.15661 14.9573 5.19312 14.9449C5.33614 14.8964 5.43231 14.7615 5.43181 14.6099L5.41991 11.0158C5.41922 10.8213 5.26162 10.664 5.06777 10.6647Z" fill="#8C8C8C"/>
<path d="M22.7077 10.6061C22.5139 10.6067 22.3573 10.765 22.3579 10.9596L22.3664 13.4988L20.2969 10.7547C20.2059 10.6339 20.0479 10.5852 19.9049 10.6336C19.7619 10.6821 19.6657 10.817 19.6662 10.9686L19.6781 14.5627C19.6788 14.7573 19.8364 14.9145 20.0302 14.9138C20.2241 14.9132 20.3806 14.7549 20.38 14.5603L20.3716 12.0211L22.441 14.7652C22.5088 14.8552 22.6137 14.9052 22.7219 14.9049C22.759 14.9048 22.7965 14.8987 22.833 14.8863C22.976 14.8378 23.0722 14.7029 23.0717 14.5514L23.0598 10.9572C23.0592 10.7627 22.9016 10.6055 22.7077 10.6061Z" fill="#8C8C8C"/>
<path d="M6.61582 10.66C6.42197 10.6606 6.26541 10.8189 6.26606 11.0134L6.27796 14.6076C6.27861 14.8022 6.43621 14.9593 6.63006 14.9587C6.82391 14.9581 6.98047 14.7998 6.97982 14.6052L6.96792 11.0111C6.96728 10.8165 6.80968 10.6593 6.61582 10.66Z" fill="#8C8C8C"/>
<path d="M9.06961 11.3567L10.8663 11.3508C11.0601 11.3501 11.2167 11.1919 11.2161 10.9973C11.2154 10.8027 11.0578 10.6455 10.864 10.6461L9.06728 10.6521C8.38025 10.6544 7.82319 11.2174 7.82548 11.9071C7.82776 12.5969 8.38858 13.1561 9.07557 13.1538L9.97722 13.1508C10.2772 13.1498 10.522 13.394 10.523 13.6952C10.524 13.9964 10.2808 14.2422 9.98084 14.2432L8.18412 14.2492C7.99027 14.2498 7.83371 14.4081 7.83436 14.6026C7.835 14.7973 7.9926 14.9544 8.18646 14.9538L9.98318 14.9478C10.6702 14.9455 11.2272 14.3826 11.2249 13.6929C11.2226 13.0031 10.6619 12.4439 9.97489 12.4462L9.07323 12.4492C8.77321 12.4502 8.52838 12.2059 8.52739 11.9048C8.52639 11.6035 8.76959 11.3577 9.06961 11.3567Z" fill="#8C8C8C"/>
<path d="M13.0323 11.344L14.8289 11.3381C15.0228 11.3374 15.1793 11.1792 15.1787 10.9846C15.178 10.79 15.0204 10.6328 14.8266 10.6334L13.0299 10.6394C12.3429 10.6417 11.7858 11.2047 11.7881 11.8944C11.7904 12.5842 12.3512 13.1434 13.0382 13.1411L13.9399 13.1381C14.2398 13.1371 14.4847 13.3813 14.4857 13.6825C14.4867 13.9837 14.2434 14.2295 13.9435 14.2305L12.1468 14.2365C11.9529 14.2371 11.7964 14.3954 11.797 14.5899C11.7976 14.7846 11.9552 14.9417 12.1491 14.9411L13.9458 14.9351C14.6328 14.9328 15.1898 14.3699 15.1876 13.6802C15.1853 12.9904 14.6245 12.4312 13.9375 12.4335L13.0359 12.4365C12.7359 12.4375 12.491 12.1932 12.49 11.8921C12.4889 11.5908 12.7322 11.345 13.0323 11.344Z" fill="#8C8C8C"/>
<path d="M17.4431 10.6233C16.5075 10.6264 15.7489 11.3931 15.752 12.3324L15.7594 14.5753C15.7601 14.77 15.9177 14.9271 16.1115 14.9265C16.3054 14.9258 16.4619 14.7676 16.4613 14.573L16.4565 13.1283L18.4463 13.1217L18.451 14.5664C18.4517 14.761 18.6093 14.9182 18.8031 14.9175C18.997 14.9169 19.1536 14.7586 19.1529 14.5641L19.1455 12.3211C19.1424 11.3818 18.3787 10.6202 17.4431 10.6233ZM16.4542 12.4237L16.4538 12.3301C16.452 11.7794 16.8968 11.3298 17.4454 11.3279C17.994 11.3261 18.4418 11.7727 18.4437 12.3235L18.444 12.417L16.4542 12.4237Z" fill="#8C8C8C"/>
</g>
<defs>
<clipPath id="clip0">
<rect width="23.9571" height="24" transform="matrix(0.999994 -0.00332369 0.00331181 0.999994 0.530762 0.829102)" fill="white"/>
</clipPath>
</defs>
</svg>
