<svg width="25" height="25" viewBox="0 0 25 25" fill="none" xmlns="http://www.w3.org/2000/svg">
<g clip-path="url(#clip0)">
<path d="M12.0075 0.786359C5.39452 0.808339 0.0468432 6.19797 0.0687874 12.824C0.0907458 19.4543 5.474 24.8082 12.087 24.7862C18.7 24.7642 24.0477 19.3747 24.0257 12.7444C24.0038 6.11834 18.6205 0.764379 12.0075 0.786359Z" fill="#3E5594"/>
<path d="M12.0076 0.786404C11.838 0.786967 11.6694 0.791934 11.5015 0.799523C17.8808 1.0442 22.9921 6.29172 23.0135 12.7478C23.0349 19.208 17.9584 24.4894 11.5809 24.7765C11.7489 24.783 11.9175 24.7868 12.0871 24.7863C18.7001 24.7643 24.0478 19.3747 24.0258 12.7444C24.0039 6.11839 18.6206 0.764424 12.0076 0.786404Z" fill="#2D3E6C"/>
<path d="M12.0813 23.0975C6.40675 23.1163 1.7749 18.5061 1.75607 12.8203C1.73724 7.13462 6.33845 2.49345 12.013 2.47458C17.6876 2.45572 22.3196 7.06621 22.3385 12.7519C22.3573 18.4376 17.7559 23.0786 12.0813 23.0975Z" fill="white"/>
<path d="M9.63451 4.58C9.60835 4.52252 9.6392 4.45464 9.69988 4.43756C10.4376 4.22989 11.215 4.11776 12.0187 4.11509C12.8211 4.11242 13.5986 4.2192 14.3368 4.42154C14.3976 4.43821 14.4289 4.50584 14.4032 4.56349L12.1309 9.6542C12.0947 9.73532 11.9799 9.73575 11.9431 9.65487L9.63451 4.58Z" fill="#2D3E6C"/>
<path d="M16.7693 5.51689C17.6249 6.07585 18.3757 6.78225 18.986 7.60016C19.0084 7.63028 19.0127 7.67039 18.9973 7.7047L15.145 16.321C15.11 16.3991 15.0008 16.4032 14.9602 16.3278L13.5389 13.689C13.5208 13.6555 13.4858 13.6346 13.4478 13.6348L10.6526 13.6441C10.6146 13.6442 10.5798 13.6653 10.5619 13.6989L9.15822 16.3469C9.11814 16.4225 9.00882 16.4192 8.97342 16.3412L5.06973 7.74284C5.05417 7.70862 5.0582 7.66844 5.08052 7.63822C5.68418 6.81965 6.42815 6.11128 7.27714 5.54863C7.32929 5.51405 7.4002 5.53435 7.42706 5.59093L10.5583 12.1915C10.5754 12.2276 10.6118 12.2506 10.6517 12.2504L13.4494 12.2411C13.4894 12.241 13.5257 12.2178 13.5425 12.1815L16.6196 5.56038C16.646 5.50348 16.7169 5.48266 16.7693 5.51689Z" fill="#2D3E6C"/>
<path d="M3.79951 10.8418C3.75884 10.7521 3.62697 10.7648 3.60521 10.8609C3.46294 11.4895 3.38879 12.1438 3.39101 12.8157C3.40191 16.1072 5.24181 18.9642 7.94337 20.4243C8.03004 20.4711 8.12655 20.38 8.08583 20.2902L3.79951 10.8418Z" fill="#2D3E6C"/>
<path d="M9.68022 21.1301C10.4413 21.3465 11.2453 21.461 12.0761 21.4583C12.9059 21.4555 13.708 21.3359 14.467 21.1151L12.0574 15.8016L9.68022 21.1301Z" fill="#2D3E6C"/>
<path d="M16.0591 20.2633C16.0188 20.3534 16.116 20.444 16.2024 20.3966C18.8939 18.9184 20.7146 16.0495 20.7037 12.7581C20.7015 12.0932 20.6248 11.446 20.4813 10.8245C20.4591 10.7285 20.3271 10.7164 20.2869 10.8064L16.0591 20.2633Z" fill="#2D3E6C"/>
</g>
<defs>
<clipPath id="clip0">
<rect width="23.9571" height="24" transform="matrix(0.999994 -0.00332369 0.00331181 0.999994 0.0290527 0.826172)" fill="white"/>
</clipPath>
</defs>
</svg>
